<svg width="0" height="0" class="hidden">
  <symbol fill="" xmlns="http://www.w3.org/2000/svg" viewBox="0 0 22 22" id="delete">
    <path d="M8.8298 9.14233C8.8298 8.91702 8.64715 8.73436 8.42183 8.73436C8.19651 8.73436 8.01385 8.91702 8.01385 9.14233H8.8298ZM8.01385 16.8813C8.01385 17.1067 8.19651 17.2893 8.42183 17.2893C8.64715 17.2893 8.8298 17.1067 8.8298 16.8813H8.01385ZM11.164 9.14209C11.164 8.91677 10.9814 8.73411 10.7561 8.73411C10.5307 8.73411 10.3481 8.91677 10.3481 9.14209H11.164ZM10.3481 16.8811C10.3481 17.1064 10.5307 17.2891 10.7561 17.2891C10.9814 17.2891 11.164 17.1064 11.164 16.8811H10.3481ZM13.5595 9.14209C13.5595 8.91677 13.3769 8.73411 13.1516 8.73411C12.9262 8.73411 12.7436 8.91677 12.7436 9.14209H13.5595ZM12.7436 16.8811C12.7436 17.1064 12.9262 17.2891 13.1516 17.2891C13.3769 17.2891 13.5595 17.1064 13.5595 16.8811H12.7436ZM8.27736 4.81191V4.25531H7.46141V4.81191H8.27736ZM9.1247 3.40798H12.5105V2.59202H9.1247V3.40798ZM13.3578 4.25531V4.81191H14.1737V4.25531H13.3578ZM12.5105 3.40798C12.9784 3.40798 13.3578 3.78734 13.3578 4.25531H14.1737C14.1737 3.3367 13.4291 2.59202 12.5105 2.59202V3.40798ZM8.27736 4.25531C8.27736 3.78734 8.65673 3.40798 9.1247 3.40798V2.59202C8.20609 2.59202 7.46141 3.3367 7.46141 4.25531H8.27736ZM5.06604 7.60659V17.431H5.88199V7.60659H5.06604ZM7.04315 19.4081H14.6228V18.5921H7.04315V19.4081ZM16.5999 17.431V7.60659H15.7839V17.431H16.5999ZM14.6228 19.4081C15.7147 19.4081 16.5999 18.5229 16.5999 17.431H15.7839C15.7839 18.0723 15.2641 18.5921 14.6228 18.5921V19.4081ZM5.06604 17.431C5.06604 18.5229 5.95123 19.4081 7.04315 19.4081V18.5921C6.40186 18.5921 5.88199 18.0723 5.88199 17.431H5.06604ZM5.50481 5.12756H16.0692V4.31161H5.50481V5.12756ZM16.0692 7.32122H5.50481V8.13717H16.0692V7.32122ZM5.50481 7.32122C4.89904 7.32122 4.40798 6.83016 4.40798 6.22439H3.59202C3.59202 7.28079 4.44841 8.13717 5.50481 8.13717V7.32122ZM17.166 6.22439C17.166 6.83016 16.6749 7.32122 16.0692 7.32122V8.13717C17.1256 8.13717 17.9819 7.28079 17.9819 6.22439H17.166ZM16.0692 5.12756C16.6749 5.12756 17.166 5.61863 17.166 6.22439H17.9819C17.9819 5.16799 17.1256 4.31161 16.0692 4.31161V5.12756ZM5.50481 4.31161C4.44841 4.31161 3.59202 5.16799 3.59202 6.22439H4.40798C4.40798 5.61863 4.89904 5.12756 5.50481 5.12756V4.31161ZM8.01385 9.14233V16.8813H8.8298V9.14233H8.01385ZM10.3481 9.14209V16.8811H11.164V9.14209H10.3481ZM12.7436 9.14209V16.8811H13.5595V9.14209H12.7436Z" fill=""></path>
  </symbol>
</svg>